<svg xmlns="http://www.w3.org/2000/svg" width="612" height="38" viewBox="0 0 612 38"><rect x="0" y="1" width="110" height="34" rx="5" fill="#17212b"/><rect x="0" y="1" width="3" height="34" rx="1" fill="#3178c6"/><text x="14" y="23" font-family="Arial,Helvetica,sans-serif" font-size="13" fill="#e7edf3">TypeScript</text><rect x="118" y="1" width="110" height="34" rx="5" fill="#17212b"/><rect x="118" y="1" width="3" height="34" rx="1" fill="#efd84f"/><text x="132" y="23" font-family="Arial,Helvetica,sans-serif" font-size="13" fill="#e7edf3">JavaScript</text><rect x="236" y="1" width="70" height="34" rx="5" fill="#17212b"/><rect x="236" y="1" width="3" height="34" rx="1" fill="#69dafa"/><text x="250" y="23" font-family="Arial,Helvetica,sans-serif" font-size="13" fill="#e7edf3">React</text><rect x="314" y="1" width="86" height="34" rx="5" fill="#17212b"/><rect x="314" y="1" width="3" height="34" rx="1" fill="#fff"/><text x="328" y="23" font-family="Arial,Helvetica,sans-serif" font-size="13" fill="#e7edf3">Next.js</text><rect x="408" y="1" width="94" height="34" rx="5" fill="#17212b"/><rect x="408" y="1" width="3" height="34" rx="1" fill="#38bdf8"/><text x="422" y="23" font-family="Arial,Helvetica,sans-serif" font-size="13" fill="#e7edf3">Tailwind</text><rect x="510" y="1" width="94" height="34" rx="5" fill="#17212b"/><rect x="510" y="1" width="3" height="34" rx="1" fill="#a6abb2"/><text x="524" y="23" font-family="Arial,Helvetica,sans-serif" font-size="13" fill="#e7edf3">Three.js</text></svg>